PathFileType	4	(X/Y/Z)	27_2_19_p1_0-342_filt_butterworth.trc
DataRate	CameraRate	NumFrames	NumMarkers	Units	OrigDataRate	OrigDataStartFrame	OrigNumFrames
60.0	60.0	6	27	m	60.0	213	342
Frame#	Time	RHip			RKnee			RAnkle			RBigToe			RSmallToe			RHeel			LHip			LKnee			LAnkle			LBigToe			LSmallToe			LHeel			Neck			Head			Nose			RShoulder			RElbow			RWrist			RThumb			RIndex			RPinky			LShoulder			LElbow			LWrist			LThumb			LIndex			LPinky			
		X1	Y1	Z1	X2	Y2	Z2	X3	Y3	Z3	X4	Y4	Z4	X5	Y5	Z5	X6	Y6	Z6	X7	Y7	Z7	X8	Y8	Z8	X9	Y9	Z9	X10	Y10	Z10	X11	Y11	Z11	X12	Y12	Z12	X13	Y13	Z13	X14	Y14	Z14	X15	Y15	Z15	X16	Y16	Z16	X17	Y17	Z17	X18	Y18	Z18	X19	Y19	Z19	X20	Y20	Z20	X21	Y21	Z21	X22	Y22	Z22	X23	Y23	Z23	X24	Y24	Z24	X25	Y25	Z25	X26	Y26	Z26	X27	Y27	Z27	
213	3.55	0.13298699693138016	0.6195507249526999	1.013903020571895	0.12381431747723831	0.6729234074164767	1.434220967191749	0.1493688449894293	0.8083886986490643	1.847623911221574	0.11821054393967027	0.5692606267587796	1.8260395770125013	0.17633395606408514	0.5997777647971216	1.82811791647583	0.1527707002495093	0.8958210468152841	1.9094781162048429	-0.05626918534824459	0.6227658077998917	1.0267790880103613	-0.050352168290753056	0.7277095137586846	1.4454713414367473	-0.03079672093398265	0.8151723354336569	1.8459319314520133	-0.0367916551279461	0.5932710873598536	1.8216134113999942	-0.08212001524737599	0.6540367876403202	1.8414195804478104	-0.003811081011414308	0.8511971311937371	1.8863184356095533	0.04424594298489935	0.5519147990998053	0.49552531911837217	0.03127402413519151	0.5214129346956268	0.24909703030413555	0.05709222134072808	0.44587153818569253	0.38915233133778915	0.15942003644156383	0.567400511928632	0.5675799524565078	0.17351447373713472	0.4954545066827763	0.7502285361739962	0.08606628911077199	0.4668115420907833	0.5922726590595253	0.064907732868163	0.45176625669572396	0.5034069348216151	0.06860127539741934	0.429904898875258	0.4974839986856199	0.06852592114444295	0.4184417047445511	0.531304979341197	-0.10943527320626609	0.6280363235164204	0.5884311524906858	-0.17096832090417843	0.6578436755410761	0.8117257848309218	-0.1586916752355924	0.5821091333490869	1.0316384823441764	-0.13661971678142065	0.5598861678450021	1.1278466303927899	-0.1621366427300719	0.5321899575665541	1.1378287879187603	-0.17530637756644443	0.5795537205903626	1.148839459290376
214	3.566666666666667	0.1327638136848449	0.6193230696473322	1.0137900477876878	0.12389329273283683	0.6729912098615003	1.435344285515434	0.1494444429184043	0.8084356463509424	1.849514159389019	0.11976551879237153	0.5742293122677451	1.82841188740225	0.1763775231479945	0.5997655256510622	1.8281568458477107	0.15276707056617983	0.8957961740663835	1.909480471820503	-0.055882886512772394	0.6225815524050422	1.0262099988024767	-0.050897969218876286	0.727693882698678	1.4469083777449807	-0.030797288591124853	0.8151622961789496	1.845914804137887	-0.03556511193030392	0.5970165732790341	1.8240561774264306	-0.08212111914347386	0.6539745374984611	1.8413410229318774	-0.0038286478988340277	0.8510010643989224	1.886295961040644	0.0442336547292667	0.5521711040369555	0.4956039642981645	0.031233022380388678	0.5213657931123588	0.2494676367691521	0.057001214560439356	0.44587313199010503	0.3891143805358803	0.15953650363858352	0.5674911309377226	0.5675952469512722	0.1743385535109226	0.4973110606912156	0.7480479132996463	0.08602589951623288	0.4668072186730578	0.5934038024557282	0.064906248062513	0.44890984672880585	0.5041217201019397	0.0677888513508254	0.428922975998319	0.4977039458852609	0.06882194272219738	0.41416971001416564	0.5324252851402248	-0.10929589146615681	0.6283712237338974	0.5894801677371708	-0.1701541873084806	0.656068670698809	0.8126202849367036	-0.15997049170254626	0.5867274022870135	1.03443609271877	-0.14211311031569138	0.5694161020673353	1.1339350588412795	-0.1619661269288212	0.5380898442241385	1.1428715072885263	-0.1767502002351827	0.5903030622113232	1.1524955587685017
215	3.583333333333333	0.13219872672293953	0.6189068978064362	1.0125699130631347	0.12398625360054455	0.6730877109415168	1.4360676966887722	0.14951949655692004	0.8080739514734285	1.8504304171367147	0.12173939056738893	0.577878165717129	1.8311403222467286	0.1764727575128473	0.5998465335170157	1.8282072926297601	0.1527525939194636	0.8958027910157753	1.9094922594664006	-0.05587055678461256	0.6228209774177689	1.0261318011178944	-0.051133266183898046	0.7273173132705835	1.4472978141216757	-0.030807271080687187	0.8151660339107223	1.845948565633502	-0.03386041220944528	0.6021004896377263	1.8278106116433013	-0.08208107606878548	0.6537495381087175	1.841335946055553	-0.0041184129442789295	0.8508409676362174	1.886440305575446	0.044277551562609416	0.5523284125314087	0.49562213327380633	0.031094295816810245	0.5212262902907435	0.24946164770885582	0.056975198750244226	0.44586927097218765	0.3890653104554576	0.15961071988321723	0.5674826233851333	0.5676157915024707	0.17541771245310095	0.49990609409254255	0.7456857428673819	0.08594457547482391	0.46681491967715305	0.5948746107880314	0.06407167040448716	0.44540363542549255	0.5051250630248822	0.06647202597393143	0.42626602111103873	0.49776380845294704	0.06997001180613573	0.41480148423996577	0.5331775240663044	-0.10920742260907348	0.6285753740076204	0.5899260088863055	-0.16848136693411342	0.6522541181741328	0.8128942564650583	-0.16105036220773897	0.59016253059672	1.0366660098156975	-0.1451779356291748	0.5738790026425018	1.1389406909788797	-0.16279479675689099	0.540249762688961	1.1466094203020278	-0.17861020984738027	0.5962872212231659	1.155129836126354
216	3.6	0.13144735906960972	0.6183626173389577	1.0110456046360894	0.12397248366838695	0.6730988912440413	1.4361523219585834	0.1495013477182911	0.8073861929298628	1.8501034992319096	0.12307846440072853	0.5792221628598787	1.8330505366286185	0.17655631542925754	0.599949399051207	1.8282560311667897	0.1527248994025025	0.8958056454490488	1.9095060184490737	-0.055952128560758735	0.6229592672923925	1.026204226048691	-0.0508473638224052	0.7266837447120073	1.4461697614649032	-0.030819575463393777	0.8151880007963452	1.8460063549998376	-0.032500288548288486	0.6060730542732822	1.8307727643650782	-0.08205132825978288	0.653483825123009	1.84140127626473	-0.004905346380147833	0.8501226219590113	1.8863087386680564	0.044386498167147174	0.5523342957619192	0.49558208986486363	0.030991135092893404	0.5209784750738201	0.24904590791921505	0.05732900532005971	0.44586826258274626	0.3889769453891708	0.1596291197333478	0.5674049905739835	0.5676334729402085	0.1762490381887747	0.5023594860252224	0.7440332156851162	0.08587977304813632	0.4668515756920197	0.5958946998082812	0.0625554926003812	0.4430249822582269	0.5060258783914954	0.06499370411528484	0.42255342038405896	0.4970812415294764	0.07147444055849743	0.4183184818577194	0.5331849513881272	-0.10912819635319786	0.6287848869376217	0.5899612585186941	-0.1668737277800026	0.6474800451336409	0.8127738578597363	-0.16160087733078707	0.591474445873538	1.0387930764101947	-0.1461122691431814	0.574811886483112	1.1425813686727369	-0.16470446029870192	0.5405413810397038	1.1491705833727488	-0.18124245438815975	0.599998830569863	1.1575506478865372
217	3.6166666666666663	0.1306162918870794	0.6180836193674659	1.0101696782328888	0.12376706565119897	0.6727684358075094	1.4358142880089748	0.14940172849687613	0.8066638326646636	1.849339169306403	0.12303070651705633	0.5792332145190144	1.8338238206429338	0.1765796790042593	0.6000054406414511	1.8282743808728865	0.1526964905654544	0.8957956741969584	1.9094986771167133	-0.05600652723041999	0.622961123120872	1.0262512421292176	-0.05041441389018062	0.7261174436946306	1.4442252189966496	-0.03082508193927416	0.8152027847984833	1.8460370806442319	-0.032013167644708955	0.6075712863811553	1.8309549570654582	-0.08203150998334825	0.6533581621190635	1.841507291610658	-0.006384659333237828	0.8491444499748018	1.8859878161799455	0.04453751256196016	0.5521614062111913	0.49556979352179903	0.03146238683955173	0.5206640847699084	0.24813386288450826	0.05837010500466659	0.4458492440501477	0.38894148457826744	0.1596176706051453	0.5673236481180616	0.5676474047224251	0.17654097154559106	0.5050174393337141	0.7437605264716027	0.08590868966003332	0.46691429613317703	0.5963128560151062	0.06152381832388615	0.44235714238195656	0.5065301274301356	0.06458058579396482	0.4195338554140727	0.4951425430960011	0.07249221608884845	0.42136948855303424	0.5327456182402933	-0.1090352534292524	0.6290873203260909	0.589896445448775	-0.1663800550300604	0.6439182594346813	0.8130785997516193	-0.16178303681577566	0.5914716321924929	1.040788942834141	-0.14623028755646922	0.5744354018791973	1.1450589270863416	-0.1667947604984362	0.540362453613165	1.1509539265686932	-0.18405448179137832	0.6072273870909005	1.1611941755292143
218	3.633333333333333	0.12957528113967814	0.6190857999175692	1.0107692640572694	0.1234613522004717	0.6721603880760442	1.4351990408024613	0.14938337887668143	0.8064518417390802	1.8488510503325046	0.12154216124492155	0.5791683765624968	1.8339894906277783	0.17655756420705299	0.6000020517032739	1.8282440447310302	0.15268296256004193	0.8957871958764805	1.9094748910024522	-0.05603721300339762	0.6229595021987349	1.02625372444891	-0.050232720637196554	0.7259427773877546	1.4426797288794018	-0.030818859541689433	0.8151826583023193	1.8460139002406823	-0.03218967814151509	0.6073051764355385	1.8287913127137054	-0.08198204781218962	0.6533687763055949	1.841578143717395	-0.008163053096792213	0.8484950422572052	1.8857374595607808	0.04466349338480391	0.5518661824300518	0.4957901216802092	0.0332605609896282	0.5203494787993144	0.24694669160693009	0.06001099095127954	0.4457397623520992	0.38928057184793263	0.1596035969919836	0.5672907423444047	0.5676839213982775	0.17631207211247574	0.5089875308300553	0.7446810648821569	0.08607266529646056	0.46697945157227205	0.5967157082238107	0.06194049326669234	0.4426223959954275	0.5065688364048587	0.06633843198878375	0.41840810912857723	0.49214312345030303	0.07287490409034336	0.42273176633648124	0.5325096472095231	-0.10906206990221684	0.6291118408450228	0.5898428515454122	-0.16687447293759766	0.6425451463036649	0.8140162492494964	-0.16197051693268688	0.5915752261776122	1.042773609634896	-0.14665845396619398	0.5740412146653779	1.1466757583907596	-0.16839428288171526	0.5401816893078293	1.1523454576404861	-0.1861534573292866	0.6193932028835967	1.166390058420556
